# xmcd
#
# Track frame offsets: 
#        150
#        10755
#        25140
#        37232
#        49678
#        63070
#        76602
#        88030
#        100396
#        112143
#        127123
#        141027
#        152143
#        163937
#        177679
#        190408
#        202783
#        217303
#
# Disc length: 3051 seconds
#
# Revision: 3
# Processed by: cddbd v1.5.2PL0 Copyright (c) Steve Scherf et al.
# Submitted via: ExactAudioCopy v1.0b3
#
DISCID=020be912
DTITLE=John Lee Hooker - The Collection
DYEAR=2006
DGENRE=Blues
TTITLE0=I'm A Boogie Man
TTITLE1=Boogie Chillen
TTITLE2=I'm Ready
TTITLE3=Hug And Squeeze
TTITLE4=Hoogie Boogie
TTITLE5=Build Myself A Cave
TTITLE6=Goin' Down Highway 51
TTITLE7=Rollin' Blues
TTITLE8=Queen Bee
TTITLE9=My Daddy Was A Jockey
TTITLE10=Too Much Boogie
TTITLE11=Gotta Boogie
TTITLE12=Baby I'm Gonna Miss You
TTITLE13=Crawlin' King Snake
TTITLE14=It's A Crime And A Shame
TTITLE15=Lovin' Guitar Man
TTITLE16=Taxi Driver
TTITLE17=Shake, Holler and Run
EXTD=
EXTT0=
EXTT1=
EXTT2=
EXTT3=
EXTT4=
EXTT5=
EXTT6=
EXTT7=
EXTT8=
EXTT9=
EXTT10=
EXTT11=
EXTT12=
EXTT13=
EXTT14=
EXTT15=
EXTT16=
EXTT17=
PLAYORDER=
